<svg width="23" height="23" viewBox="0 0 23 23" fill="none" xmlns="http://www.w3.org/2000/svg">
<path d="M19.7564 0H3.24359C1.45431 0 0 1.45431 0 3.24359V19.7564C0 21.5457 1.45431 23 3.24359 23H19.7564C21.5457 23 23 21.5457 23 19.7564V3.24359C23 1.45431 21.5457 0 19.7564 0ZM3.24359 1.76923H19.7564C20.5691 1.76923 21.2308 2.43092 21.2308 3.24359V7.07692H1.76923V3.24359C1.76923 2.43092 2.43092 1.76923 3.24359 1.76923ZM19.7564 21.2308H3.24359C2.43092 21.2308 1.76923 20.5691 1.76923 19.7564V8.84615H21.2308V19.7564C21.2308 20.5691 20.5691 21.2308 19.7564 21.2308ZM3.53846 4.42308C3.53846 3.93477 3.93477 3.53846 4.42308 3.53846H5.60256C6.09087 3.53846 6.48718 3.93477 6.48718 4.42308C6.48718 4.91139 6.09087 5.30769 5.60256 5.30769H4.42308C3.93477 5.30769 3.53846 4.91139 3.53846 4.42308ZM8.25641 4.42308C8.25641 3.93477 8.65272 3.53846 9.14103 3.53846H10.3205C10.8088 3.53846 11.2051 3.93477 11.2051 4.42308C11.2051 4.91139 10.8088 5.30769 10.3205 5.30769H9.14103C8.65272 5.30769 8.25641 4.91139 8.25641 4.42308ZM17.3974 10.6154H5.60256C4.46436 10.6154 3.53846 11.5413 3.53846 12.6795V13.859C3.53846 14.9972 4.46436 15.9231 5.60256 15.9231H17.3974C18.5356 15.9231 19.4615 14.9972 19.4615 13.859V12.6795C19.4615 11.5413 18.5356 10.6154 17.3974 10.6154ZM17.6923 13.859C17.6923 14.0217 17.5602 14.1538 17.3974 14.1538H5.60256C5.4398 14.1538 5.30769 14.0217 5.30769 13.859V12.6795C5.30769 12.5167 5.4398 12.3846 5.60256 12.3846H17.3974C17.5602 12.3846 17.6923 12.5167 17.6923 12.6795V13.859ZM18.5769 19.4615H13.859C13.3707 19.4615 12.9744 19.0652 12.9744 18.5769C12.9744 18.0886 13.3707 17.6923 13.859 17.6923H18.5769C19.0652 17.6923 19.4615 18.0886 19.4615 18.5769C19.4615 19.0652 19.0652 19.4615 18.5769 19.4615Z" fill="white"/>
</svg>
