<svg width="31" height="31" viewBox="0 0 31 31" fill="none" xmlns="http://www.w3.org/2000/svg">
<g clip-path="url(#clip0_144_1976)">
<g clip-path="url(#clip1_144_1976)">
<path d="M26.35 0H4.65C2.08188 0 0 2.08188 0 4.65V26.35C0 28.9181 2.08188 31 4.65 31H26.35C28.9181 31 31 28.9181 31 26.35V4.65C31 2.08188 28.9181 0 26.35 0Z" fill="#1877F2"/>
<path d="M21.5285 19.9805L22.2188 15.5H17.9199V12.5938C17.9199 11.3707 18.5193 10.1719 20.4447 10.1719H22.4004V6.35742C22.4004 6.35742 20.6264 6.05469 18.9311 6.05469C15.3891 6.05469 13.0762 8.19805 13.0762 12.0852V15.5H9.14062V19.9805H13.0762V31H17.9199V19.9805H21.5285Z" fill="white"/>
</g>
</g>
<defs>
<clipPath id="clip0_144_1976">
<rect width="31" height="31" fill="white"/>
</clipPath>
<clipPath id="clip1_144_1976">
<rect width="31" height="31" fill="white"/>
</clipPath>
</defs>
</svg>
