<svg width="23" height="23" viewBox="0 0 23 23" fill="none" xmlns="http://www.w3.org/2000/svg">
<path d="M4.99609 12.3984H18.0055V13.2609H4.99609V12.3984ZM4.99609 17.0703H18.0055V17.9328H4.99609V17.0703Z" fill="white"/>
<path d="M18.0766 22.317H4.95938C3.30625 22.317 2.15625 21.167 2.15625 19.5139V6.6123C2.15625 6.10918 2.33594 5.71387 2.69531 5.35449C4.06094 4.0248 5.4625 2.65918 6.82813 1.29355C7.25938 0.862305 7.7625 0.682617 8.37344 0.682617H18.1484C19.6938 0.682617 20.8797 1.86855 20.8797 3.41387V19.5498C20.8797 20.3404 20.5922 21.0592 20.0891 21.5623C19.55 22.0295 18.8672 22.317 18.0766 22.317ZM18.0766 21.4545C18.6516 21.4545 19.1188 21.2748 19.4781 20.9154C19.8375 20.5561 20.0172 20.0889 20.0172 19.5139V3.37793C20.0172 2.26387 19.2625 1.50918 18.1484 1.50918H8.37344C8.01406 1.50918 7.69063 1.61699 7.43906 1.90449C6.0375 3.27012 4.67188 4.63574 3.30625 5.96543C3.12656 6.14512 3.05469 6.3248 3.05469 6.6123V19.5139C3.05469 20.6998 3.80938 21.4545 4.99531 21.4545H18.0766Z" fill="white"/>
<path d="M4.3125 8.04961V7.15117H7.58281C8.3375 7.15117 8.66094 6.82773 8.66094 6.10898V2.80273H9.55938V6.10898C9.55938 7.33086 8.84063 8.04961 7.61875 8.04961H4.3125ZM14.375 4.67148V3.95273H14.8422V4.63555C15.0219 4.67148 15.2016 4.67148 15.3453 4.74336C15.4891 4.7793 15.5969 4.85117 15.7406 4.88711C15.7406 4.88711 15.7766 4.92305 15.7766 4.95898C15.7047 5.10273 15.6688 5.24648 15.5969 5.39023C15.4172 5.28242 15.2375 5.21055 15.0219 5.17461C14.7703 5.13867 14.5547 5.10273 14.3031 5.21055C14.0516 5.28242 13.9078 5.46211 13.8719 5.71367C13.8359 5.96523 13.9078 6.18086 14.1234 6.32461C14.3031 6.43242 14.4828 6.54023 14.6984 6.61211C14.95 6.71992 15.2016 6.82773 15.4172 7.00742C15.8125 7.29492 15.9922 7.69023 15.9203 8.19336C15.8484 8.66055 15.5609 8.98398 15.1297 9.16367C15.0219 9.19961 14.8781 9.23555 14.7344 9.27148V10.0262H14.2312V9.30742C14.0516 9.27148 13.9078 9.27148 13.7281 9.23555C13.5125 9.19961 13.3328 9.12773 13.1531 9.01992C13.1172 8.98398 13.1172 8.98398 13.1172 8.91211C13.1531 8.76836 13.225 8.62461 13.2609 8.48086C13.2969 8.5168 13.3328 8.5168 13.3688 8.55273C13.6922 8.73242 14.0156 8.8043 14.375 8.8043C14.5188 8.8043 14.6625 8.76836 14.7703 8.73242C15.3094 8.5168 15.3813 7.86992 14.9141 7.47461C14.7344 7.33086 14.5188 7.22305 14.3031 7.15117C14.0156 7.04336 13.7641 6.89961 13.5484 6.71992C13.0094 6.28867 13.0813 5.42617 13.6203 4.99492C13.8 4.85117 14.0156 4.7793 14.2312 4.70742C14.3031 4.67148 14.3391 4.67148 14.375 4.67148Z" fill="white"/>
</svg>
