<svg width="31" height="31" viewBox="0 0 31 31" fill="none" xmlns="http://www.w3.org/2000/svg">
<g clip-path="url(#clip0_144_1981)">
<g clip-path="url(#clip1_144_1981)">
<path d="M26.35 0H4.65C2.08188 0 0 2.08188 0 4.65V26.35C0 28.9181 2.08188 31 4.65 31H26.35C28.9181 31 31 28.9181 31 26.35V4.65C31 2.08188 28.9181 0 26.35 0Z" fill="white"/>
<path d="M23.3711 24.2188C26.0957 21.6758 27.3066 17.4375 26.5801 13.3809H15.7422V17.8613H21.918C21.6758 19.3145 20.8281 20.5254 19.6172 21.3125L23.3711 24.2188Z" fill="#4285F4"/>
<path d="M5.44922 20.6465C6.24571 22.2155 7.38799 23.5832 8.78995 24.6466C10.1919 25.7099 11.817 26.4411 13.5426 26.7851C15.2683 27.129 17.0495 27.0768 18.752 26.6322C20.4545 26.1877 22.0339 25.3625 23.3711 24.2188L19.6172 21.3125C16.4082 23.4316 11.0801 22.6445 9.26367 17.6797L5.44922 20.6465Z" fill="#34A853"/>
<path d="M9.26521 17.6797C8.78084 16.166 8.78084 14.7734 9.26521 13.2598L5.45076 10.293C4.05818 13.0781 3.63435 17.0137 5.45076 20.6465L9.26521 17.6797Z" fill="#FBBC02"/>
<path d="M9.26367 13.2601C10.5957 9.0824 16.2871 6.66053 20.1016 10.2328L23.4316 6.96326C18.709 2.42225 9.50586 2.60389 5.44922 10.2933L9.26367 13.2601Z" fill="#EA4335"/>
</g>
</g>
<defs>
<clipPath id="clip0_144_1981">
<rect width="31" height="31" fill="white"/>
</clipPath>
<clipPath id="clip1_144_1981">
<rect width="31" height="31" fill="white"/>
</clipPath>
</defs>
</svg>
