<svg width="589" height="589" viewBox="0 0 589 589" fill="none" xmlns="http://www.w3.org/2000/svg">
<g clip-path="url(#clip0_144_1861)">
<path d="M565.441 413.804H23.5614V414.295H565.441V413.804ZM430.168 481.736H407.233V482.227H430.168V481.736ZM404.546 481.736H396.414V482.227H404.546V481.736ZM201.531 172.554H202.022V142.07C202.024 140.645 202.59 139.28 203.598 138.272C204.605 137.265 205.971 136.698 207.395 136.697H247.524C248.948 136.698 250.314 137.265 251.321 138.272C252.329 139.28 252.895 140.645 252.897 142.07V172.554H253.388V142.07C253.386 140.515 252.768 139.025 251.668 137.925C250.569 136.826 249.078 136.208 247.524 136.206H207.395C205.84 136.208 204.35 136.826 203.251 137.925C202.151 139.025 201.533 140.515 201.531 142.07V172.554Z" fill="black"/>
<path d="M242.088 168.677C243.314 168.677 244.513 168.313 245.533 167.632C246.552 166.951 247.347 165.982 247.816 164.849C248.285 163.716 248.408 162.469 248.169 161.267C247.93 160.064 247.339 158.959 246.472 158.092C245.605 157.225 244.5 156.634 243.297 156.395C242.094 156.156 240.848 156.278 239.715 156.748C238.582 157.217 237.613 158.012 236.932 159.031C236.251 160.051 235.887 161.25 235.887 162.476C235.889 164.12 236.542 165.696 237.705 166.859C238.868 168.021 240.444 168.675 242.088 168.677ZM242.088 156.766C243.217 156.766 244.321 157.101 245.26 157.729C246.199 158.356 246.931 159.248 247.363 160.291C247.795 161.335 247.908 162.483 247.687 163.59C247.467 164.698 246.923 165.715 246.125 166.514C245.326 167.312 244.309 167.856 243.201 168.076C242.094 168.296 240.946 168.183 239.902 167.751C238.859 167.319 237.967 166.587 237.34 165.648C236.712 164.709 236.378 163.605 236.378 162.476C236.379 160.962 236.982 159.511 238.052 158.44C239.123 157.37 240.574 156.768 242.088 156.766ZM230.961 160.104H206.874V160.595H230.961V160.104ZM239.864 148.647H204.055V149.138H239.864V148.647ZM251.012 148.647H242.297V149.138H251.012V148.647ZM230.961 164.357H214.105V164.848H230.961V164.357ZM127.466 172.554H127.957V142.07C127.958 140.645 128.525 139.28 129.533 138.272C130.54 137.265 131.906 136.698 133.33 136.697H173.459C174.884 136.698 176.249 137.265 177.257 138.272C178.264 139.28 178.831 140.645 178.832 142.07V172.554H179.323V142.07C179.321 140.515 178.703 139.025 177.604 137.925C176.504 136.826 175.014 136.208 173.459 136.206H133.33C131.776 136.208 130.285 136.826 129.186 137.925C128.087 139.025 127.468 140.515 127.467 142.07L127.466 172.554Z" fill="black"/>
<path d="M168.023 168.677C169.249 168.677 170.448 168.313 171.467 167.632C172.487 166.951 173.282 165.982 173.751 164.849C174.221 163.716 174.343 162.469 174.104 161.267C173.865 160.064 173.274 158.959 172.407 158.092C171.54 157.225 170.435 156.634 169.232 156.395C168.03 156.155 166.783 156.278 165.65 156.747C164.517 157.217 163.548 158.011 162.867 159.031C162.186 160.051 161.822 161.249 161.822 162.476C161.824 164.12 162.477 165.696 163.64 166.858C164.802 168.021 166.379 168.675 168.023 168.677ZM168.023 156.766C169.152 156.766 170.256 157.101 171.195 157.728C172.134 158.356 172.866 159.247 173.298 160.291C173.73 161.334 173.843 162.482 173.623 163.59C173.402 164.697 172.859 165.715 172.06 166.513C171.261 167.312 170.244 167.856 169.136 168.076C168.029 168.296 166.881 168.183 165.837 167.751C164.794 167.319 163.902 166.587 163.275 165.648C162.648 164.709 162.313 163.605 162.313 162.476C162.314 160.962 162.917 159.511 163.987 158.44C165.057 157.37 166.509 156.768 168.023 156.766ZM156.896 160.104H132.809V160.594H156.896V160.104ZM165.8 148.646H129.99V149.137H165.8V148.646ZM176.947 148.646H168.232V149.137H176.947V148.646ZM156.896 164.357H140.04V164.848H156.896V164.357ZM242.026 499.112H212.569V499.603H242.026V499.112ZM294.367 419.467H279.367V419.958H294.367V419.467ZM388.779 419.467H298.856V419.958H388.779V419.467ZM463.168 419.467H435.675V419.958H463.168V419.467ZM207.233 499.112H196.454V499.603H207.233V499.112Z" fill="black"/>
<path d="M474.699 177.338H108.366V198.107H474.699V177.338Z" fill="#A3C644"/>
<path d="M108.119 408.83H108.61V175.62H476.415V408.83H476.906V175.129H108.119V408.83Z" fill="black"/>
<path d="M474.699 197.861H112.079V198.352H474.699V197.861Z" fill="black"/>
<path d="M462.8 191.715C460.594 191.715 458.806 189.927 458.806 187.722C458.806 185.516 460.594 183.729 462.8 183.729C465.005 183.729 466.793 185.516 466.793 187.722C466.793 189.927 465.005 191.715 462.8 191.715Z" fill="white"/>
<path d="M445.499 191.715C443.293 191.715 441.505 189.927 441.505 187.722C441.505 185.516 443.293 183.729 445.499 183.729C447.704 183.729 449.492 185.516 449.492 187.722C449.492 189.927 447.704 191.715 445.499 191.715Z" fill="white"/>
<path d="M428.198 191.715C425.992 191.715 424.205 189.927 424.205 187.722C424.205 185.516 425.992 183.729 428.198 183.729C430.403 183.729 432.191 185.516 432.191 187.722C432.191 189.927 430.403 191.715 428.198 191.715Z" fill="white"/>
<path d="M129.94 180.911H176.96C178.294 180.911 179.375 181.993 179.375 183.327V192.117C179.375 193.451 178.294 194.533 176.96 194.533H129.94C128.606 194.533 127.524 193.451 127.524 192.117V183.327C127.524 181.993 128.606 180.911 129.94 180.911Z" fill="white"/>
<path d="M150.559 375.441C149.228 376.575 139.934 375.254 135.254 366.5C133.312 362.868 132.945 359.378 132.366 353.348C130.863 337.694 129.818 318.343 134.401 325.296C144.03 339.901 150.664 337.879 155.973 351.16C157.259 354.377 160.832 366.687 150.559 375.441Z" fill="#47AA50"/>
<path d="M151.964 403.918C153.885 389.847 151.636 364.622 138.975 339.842L138.538 340.065C151.147 364.744 153.389 389.85 151.478 403.851L151.964 403.918Z" fill="black"/>
<path d="M152.543 354.744L152.076 354.593L148.354 366.115L148.821 366.266L152.543 354.744Z" fill="black"/>
<path d="M157.852 361.091C157.864 360.971 158.929 349.07 149.629 341.167C144.561 336.86 141.35 334.067 139.508 331.595L139.114 331.888C140.988 334.402 144.216 337.212 149.311 341.541C158.417 349.279 157.375 360.925 157.364 361.042L157.852 361.091Z" fill="black"/>
<path d="M156.048 385.044C155.737 386.533 155.881 388.081 156.461 389.488C156.877 390.428 157.494 391.266 158.268 391.944C162.27 389.741 165.969 387.028 169.273 383.872C172.604 380.69 174.377 378.995 175.429 376.078C177.999 368.946 174.339 359.817 171.541 359.671C171.105 359.675 170.684 359.836 170.357 360.125C167.796 362.09 165.715 366.852 164.336 370.835C163.16 374.168 161.294 377.214 158.86 379.775C157.42 381.213 156.441 383.047 156.048 385.044Z" fill="#47AA50"/>
<path d="M156.13 402.538C157.275 396.362 159.752 387.383 162.086 382.907L161.651 382.681C159.269 387.247 156.827 396.081 155.647 402.448L156.13 402.538Z" fill="black"/>
<path d="M126.494 376.119C126.507 376.005 126.551 375.897 126.621 375.806C126.691 375.715 126.784 375.645 126.891 375.603C126.998 375.561 127.114 375.548 127.227 375.567C127.34 375.586 127.446 375.635 127.533 375.71C129.695 377.609 133.697 377.593 136.712 378.944C139.501 380.195 140.986 380.861 142.432 382.576C145.966 386.767 146.634 394.108 145.125 395.003C145.002 395.064 144.868 395.097 144.731 395.101C144.595 395.105 144.459 395.079 144.333 395.027C142.332 394.398 139.77 391.702 137.828 389.345C136.198 387.368 134.14 385.975 132.147 384.731C127.206 381.649 126.463 378.07 126.494 376.119Z" fill="#47AA50"/>
<path d="M148.435 409.425L148.918 409.335C148.795 408.671 148.675 407.949 148.547 407.177C147.46 400.623 145.817 390.72 136.845 382.612L136.516 382.977C145.361 390.969 146.987 400.771 148.063 407.257C148.192 408.032 148.312 408.758 148.435 409.425Z" fill="black"/>
<path d="M164.453 401.341H140.488V417.006C140.488 419.208 141.362 421.319 142.919 422.875C144.475 424.432 146.586 425.306 148.788 425.306H156.153C158.354 425.306 160.466 424.432 162.022 422.875C163.579 421.319 164.453 419.208 164.453 417.006V401.341Z" fill="url(#paint0_linear_144_1861)"/>
<path d="M160.492 401.096H144.451V401.587H160.492V401.096Z" fill="black"/>
<path d="M363.517 318.451C363.517 318.451 386.848 331.215 396.154 319.531C402.056 312.123 406.231 300.297 405.956 294.771C405.715 289.951 404.925 282.633 401.754 287.308C397.733 293.234 392.444 298.95 385.962 309.074C382.934 313.803 365.513 314.18 365.513 314.18L363.517 318.451Z" fill="#FFD7CF"/>
<path d="M363.516 318.451C363.516 318.451 358.154 319.209 354.339 316.517C354.018 316.291 351.881 313.212 351.183 311.907C350.609 310.834 351.082 308.846 352.182 309.556C356.509 312.349 357.971 313.091 357.971 313.091C357.971 313.091 356.149 311.869 355.633 310.88C355.432 310.493 356.577 309.997 357.826 310.401C358.829 310.726 360.582 310.99 361.473 311.376C363.054 312.06 365.512 314.179 365.512 314.179L363.516 318.451Z" fill="#FFD7CF"/>
<path d="M396.037 359.444C400.479 350.586 409.911 343.6 415.891 346.118C422.999 349.113 427.402 367.65 426.311 375.286C424.77 386.082 411.988 405.547 411.774 420.395C411.314 452.382 406.369 469.008 406.369 469.008L402.618 469.362C396.82 425.544 394.546 427.031 391.229 407.952C388.462 392.032 391.279 368.93 396.037 359.444Z" fill="#F4C0B8"/>
<path d="M418.816 393.15C418.816 393.15 398.646 389.597 393.067 392.498C393.067 392.498 400.631 398.209 409.231 397.85C416.517 397.545 418.816 393.15 418.816 393.15H418.816Z" fill="#111107"/>
<path d="M411.433 290.051C409.191 287.623 407.076 285.081 405.097 282.434C405.097 282.434 401.754 284.38 394.265 295.332C391.301 299.667 382.238 308.308 382.655 311.13C383.315 315.59 393.228 320.796 395.515 321.009C397.362 321.182 399.239 319.74 400.437 317.602C408.437 303.328 414.312 293.119 411.433 290.051Z" fill="#639BFF"/>
<path d="M413.698 359.038C418.14 350.18 435.588 345.339 441.567 347.858C448.676 350.852 445.741 370.92 444.65 378.555C443.109 389.352 430.415 403.375 432.297 419.326C435.491 446.382 424.774 471.079 424.774 471.079L421.796 470.741C421.796 470.741 419.684 444.435 411.56 411.416C406.364 390.298 408.941 368.524 413.698 359.038Z" fill="#FFD7CF"/>
<path d="M455.676 382.455C454.419 388.041 425.255 392.67 415.322 393.512C410.438 393.925 400.545 394.017 395.72 393.155C390.616 392.244 376.575 386.486 376.521 385.311C375.951 372.928 376.525 360.306 380.086 348.359C381.863 342.417 384.439 336.743 387.743 331.494C391.094 326.156 394.966 321.104 397.513 315.305C397.864 314.504 398.907 313.854 399.741 314.507C404.759 318.433 411.039 319.78 417.312 319.593C420.893 319.429 424.452 318.936 427.943 318.121C431.046 317.447 434.239 316.227 437.45 316.546C438.168 316.617 439.007 317.282 438.866 318.102C438.307 321.361 440.175 324.081 441.811 326.729C443.378 329.252 444.815 331.854 446.117 334.523C448.577 339.605 450.548 344.909 452.005 350.364C455 361.559 458.221 371.15 455.676 382.455Z" fill="url(#paint1_linear_144_1861)"/>
<path d="M425.574 469.071C425.574 469.071 425.152 469.551 423.678 469.72C422.989 469.845 422.277 469.718 421.674 469.361C421.674 469.361 420.386 473.78 418.882 476.205C417.87 477.837 416.498 479.79 417.531 480.06C418.985 480.301 420.476 479.971 421.693 479.139C423.566 477.881 424.157 474.611 424.805 475.287C425.179 475.678 424.709 476.368 425.44 476.025C425.94 475.791 426.446 474.216 426.478 473.074C426.534 471.684 426.222 470.303 425.575 469.071H425.574Z" fill="#0B4FB2"/>
<path d="M435.096 282.992C426.917 276.842 411.04 276.31 406.038 285.211C404.23 288.43 407.502 296.326 410.592 298.542C414.812 301.568 420.951 301.573 426.131 300.421C431.228 299.287 436.266 296.974 439.372 293.409C442.911 289.345 438.887 285.844 435.096 282.992Z" fill="#FFD7CF"/>
<path d="M390.325 241.478C392.627 244.884 396.1 246.929 399.499 249.139C400.689 249.913 401.818 250.656 401.858 251.326C401.966 253.153 400.976 255.136 400.78 256.947C400.317 261.238 401.108 266.44 405.893 268.791C408.1 269.876 410.574 269.981 412.579 271.032C415.869 272.756 415.283 272.883 416.928 274.814C420.15 278.597 424.739 278.389 427.059 274.832C427.469 274.203 428.256 273.098 428.753 274.146C429.74 276.229 435.089 273.475 433.566 270.726C432.668 269.106 434.44 270.234 436.338 270.366C440.348 270.644 444.433 271.175 448.079 269.677C451.464 268.285 454.093 265.358 454.393 261.644C454.715 257.669 451.88 253.29 448.55 250.691C446.975 249.496 445.137 248.694 443.189 248.353C442.904 248.296 444.718 243.128 442.454 238.321C440.738 234.68 432.999 240.206 428.992 233.937C427.773 232.03 426.498 230.027 424.579 228.659C421.232 226.274 417.381 226.186 413.999 227.559C412.868 228.018 411.434 229.144 410.137 229.178C409.144 229.204 408.522 228.519 407.695 227.822C404.672 225.274 401.587 222.896 397.566 223.321C388.802 224.249 385.49 234.321 390.325 241.478Z" fill="#111107"/>
<path d="M437.235 271.655C433.014 272.552 434.166 269.966 432.267 269.889C430.573 269.82 429.047 270.872 428.594 271.905C427.597 274.179 430.748 277.781 434.872 275.09C437.169 273.591 440.882 275.569 441.042 274.203C441.139 273.371 439.878 271.094 437.235 271.655Z" fill="#111107"/>
<path d="M437.619 276.44C438.38 276.348 438.16 276.712 438.868 276.903C439.143 276.98 439.434 276.979 439.708 276.9C439.983 276.822 440.23 276.669 440.423 276.458C440.992 275.687 440.172 274.607 438.39 275.267C437.397 275.635 436.549 274.719 436.22 275.135C435.805 275.661 436.288 276.601 437.619 276.44Z" fill="#111107"/>
<path d="M415.349 265.332C415.593 264.596 416.473 264.578 417.269 265.153C417.924 265.626 417.823 268.474 416.71 268.372C415.54 268.264 414.926 266.602 415.349 265.332Z" fill="#F4C0B8"/>
<path d="M418.416 282.009C418.122 278.319 418.207 272.539 419.139 271.186C420.459 269.273 426.465 269.389 426.14 272.08C425.902 274.044 425.575 281.021 425.393 282.493C425.137 284.56 418.628 284.67 418.416 282.009Z" fill="#FFD7CF"/>
<path d="M426.129 272.163L425.946 274.269C424.932 276.561 423.459 278.422 421.765 278.042C420.965 277.888 420.224 277.515 419.624 276.965C419.023 276.415 418.588 275.709 418.364 274.925L418.605 272.246L426.129 272.163Z" fill="#F4C0B8"/>
<path d="M426.398 270.482V272.528C425.385 274.82 423.964 276.264 421.529 276.047C419.638 275.879 418.814 274.547 418.265 272.967L418.875 270.564L426.398 270.482Z" fill="#111107"/>
<path d="M417.96 258.112C419.419 256.45 424.306 254.49 427.013 257.977C429.239 260.846 429.075 265 428.46 268.098C427.8 271.423 425.753 275.664 421.784 275.297C417.612 274.912 416.661 271.357 416.429 268.19C416.163 264.559 415.595 260.808 417.96 258.112Z" fill="#FFD7CF"/>
<path d="M422.035 265.711C422.23 265.046 423.453 268.328 422.348 268.901C421.94 269.112 420.769 268.887 420.811 268.43C420.869 267.807 421.354 268.029 422.035 265.711Z" fill="#FF9EAB"/>
<path d="M427.673 266.298C428.094 265.187 429.032 264.749 429.685 265.473C430.225 266.073 429.374 268.976 428.256 268.981C427.532 268.984 427.197 267.549 427.672 266.298H427.673Z" fill="#F4C0B8"/>
<path d="M415.86 255.015C419.14 253.723 421.859 256.544 418.747 260.354C417.005 262.485 417.181 264.531 415.768 265.118C413.075 266.236 410.156 257.262 415.86 255.015Z" fill="#111107"/>
<path d="M433.383 263.153C430.479 261.247 433.51 258.848 431.746 256.261C430.202 253.999 428.199 253.726 427.094 251.271C425.985 248.806 424.176 250.957 420.116 250.104C416.246 249.291 414.134 254.209 416.971 259.039C417.695 260.358 418.772 261.451 420.08 262.195C421.388 262.94 422.878 263.307 424.382 263.256C427.486 263.134 427.591 266.012 429.861 266.417C433.483 267.063 436.531 264.748 436.531 264.748C435.409 264.374 434.348 263.836 433.383 263.153Z" fill="#111107"/>
<path d="M442.862 302.185C442.001 306.761 441.63 311.366 440.97 315.963C440.499 319.249 431.29 322.417 421.978 322.413C401.382 322.404 395.928 315.074 396.878 312.16C399.711 303.477 399.082 304.212 398.357 296.593C397.247 284.932 411.639 277.132 411.527 280.249C411.007 294.787 425.225 290.594 429.594 284.533C430.666 283.046 431.97 280.598 433.072 280.875C437.356 281.954 443.621 285.22 444.714 288.745C445.472 291.194 443.707 297.691 442.862 302.185Z" fill="#639BFF"/>
<path d="M438.034 286.22C434.339 287.216 433.811 292.147 434.458 295.916C435.567 302.378 440.288 310.01 440.288 310.01L441.844 303.454L438.034 286.22Z" fill="#111107"/>
<path d="M406.882 467.043C406.222 467.539 405.432 467.831 404.608 467.883C403.864 467.951 403.113 467.881 402.393 467.679C402.393 467.679 401.729 471.131 399.97 473.627C398.543 475.653 397.844 475.779 397.416 477.156C397.038 478.373 400.305 477.942 402.105 477.17C404.638 476.083 403.186 472.989 405.956 472.66C406.005 473.931 406.034 473.85 406.842 473.85C407.479 473.85 407.741 472.293 407.781 471.151C407.779 469.733 407.472 468.332 406.881 467.043H406.882Z" fill="#0B4FB2"/>
<path d="M422.911 270.887C422.911 270.887 422.098 272.015 421.26 270.988C421.418 270.837 421.599 270.709 421.795 270.611C421.869 270.602 422.06 270.755 422.06 270.755C422.06 270.755 422.251 270.411 422.367 270.404C422.549 270.393 422.911 270.887 422.911 270.887ZM420.814 264.364C420.997 264.204 420.12 263.73 419.503 263.873C419.221 263.971 418.988 264.174 418.853 264.439C419.007 264.314 419.192 264.233 419.388 264.204C419.584 264.175 419.785 264.199 419.969 264.274C420.339 264.426 420.703 264.461 420.814 264.364ZM423.651 264.364C423.469 264.204 424.346 263.73 424.963 263.873C425.245 263.971 425.478 264.174 425.613 264.439C425.459 264.314 425.274 264.233 425.078 264.204C424.881 264.175 424.681 264.199 424.497 264.274C424.127 264.426 423.763 264.461 423.651 264.364ZM419.78 265.305C419.794 265.208 419.846 265.12 419.924 265.06C420.002 264.999 420.1 264.972 420.198 264.982C420.295 264.992 420.386 265.039 420.45 265.114C420.513 265.189 420.546 265.285 420.541 265.384C420.519 265.594 420.371 265.654 420.161 265.632C419.951 265.61 419.758 265.516 419.78 265.306V265.305ZM424.002 265.37C423.997 265.32 424.003 265.268 424.018 265.22C424.034 265.171 424.059 265.126 424.092 265.087C424.125 265.049 424.165 265.017 424.211 264.994C424.257 264.971 424.306 264.957 424.357 264.954C424.408 264.95 424.459 264.957 424.507 264.974C424.556 264.99 424.6 265.016 424.638 265.05C424.676 265.084 424.707 265.125 424.729 265.171C424.751 265.217 424.763 265.267 424.766 265.318C424.78 265.529 424.595 265.622 424.384 265.636C424.173 265.65 424.017 265.581 424.002 265.371L424.002 265.37Z" fill="#111107"/>
<path d="M428.023 268.364C428.02 268.323 428.025 268.282 428.038 268.243C428.05 268.204 428.071 268.167 428.098 268.136C428.125 268.105 428.157 268.08 428.194 268.061C428.231 268.043 428.271 268.032 428.312 268.029C428.353 268.026 428.394 268.032 428.433 268.045C428.472 268.058 428.508 268.079 428.539 268.106C428.57 268.133 428.595 268.167 428.613 268.204C428.631 268.241 428.642 268.281 428.644 268.322C428.655 268.493 428.505 268.568 428.334 268.58C428.162 268.591 428.035 268.535 428.023 268.364V268.364Z" fill="#004CF3"/>
<path d="M422.431 261.679L422.602 261.218C422.315 261.112 415.611 258.539 417.467 252.496L416.998 252.352C415.004 258.838 422.356 261.651 422.431 261.679ZM432.612 264.883L433.023 264.615C432.92 264.457 430.463 260.71 427.228 258.894C426.061 258.254 424.837 257.723 423.571 257.308C422.018 256.763 420.993 256.402 420.339 255.086L419.899 255.303C420.642 256.8 421.802 257.207 423.409 257.771C424.648 258.175 425.846 258.695 426.988 259.322C430.116 261.078 432.588 264.845 432.612 264.883Z" fill="white"/>
<path d="M417.882 292.435C422.473 292.435 427.328 289.316 427.584 289.148L427.316 288.737C427.239 288.787 419.556 293.724 414.609 291.231C412.105 289.97 410.695 287.005 410.419 282.419L409.929 282.448C410.217 287.222 411.717 290.324 414.389 291.67C415.477 292.196 416.674 292.458 417.882 292.435ZM405.765 334.702C406.329 330.531 407.388 326.442 408.921 322.522L408.468 322.334C406.919 326.296 405.847 330.428 405.278 334.644L405.765 334.702ZM413.279 419.77L413.757 419.659C413.735 419.564 411.526 410.037 409.468 400.038L408.987 400.137C411.047 410.142 413.257 419.675 413.279 419.77ZM420.467 322.66C423.112 322.668 425.755 322.522 428.383 322.221L428.318 321.735C428.146 321.758 410.969 323.963 401.884 318.244L401.622 318.66C406.835 321.94 414.632 322.66 420.467 322.66ZM388.418 315.649L388.811 315.354C388.77 315.3 384.737 309.863 384.737 304.521H384.247C384.247 310.029 388.247 315.422 388.418 315.649ZM399.003 310.909C399.673 308.404 400 305.82 399.975 303.227C399.919 302.058 399.783 300.894 399.571 299.742C398.973 296.996 399.113 294.141 399.977 291.467L399.506 291.328C398.339 295.287 398.702 297.489 399.087 299.822C399.296 300.953 399.428 302.096 399.485 303.245C399.508 305.786 399.187 308.319 398.531 310.775L399.003 310.909Z" fill="black"/>
<path d="M445.292 343.955L346.923 307.78L352.967 291.396L451.336 327.571L445.292 343.955Z" fill="#FB4143"/>
<path d="M357.379 302.074L356.457 301.737L356.288 302.197L357.21 302.535L357.379 302.074Z" fill="black"/>
<path d="M385.8 313.012L385.969 312.551L384.182 311.896L384.013 312.357L385.8 313.012ZM382.227 311.702L382.395 311.242L380.609 310.587L380.44 311.048L382.227 311.702ZM378.653 310.392L378.822 309.932L377.035 309.277L376.866 309.738L378.653 310.392ZM375.08 309.083L375.248 308.622L373.462 307.968L373.292 308.428L375.08 309.083ZM371.506 307.773L371.675 307.312L369.888 306.658L369.719 307.119L371.506 307.773ZM367.932 306.464L368.101 306.003L366.314 305.348L366.145 305.808L367.932 306.464ZM364.359 305.154L364.528 304.693L362.741 304.039L362.572 304.499L364.359 305.154ZM360.786 303.844L360.954 303.383L359.167 302.729L358.998 303.189L360.786 303.844Z" fill="black"/>
<path d="M388.676 313.545L387.754 313.207L387.585 313.668L388.507 314.006L388.676 313.545Z" fill="black"/>
<path d="M437.604 337.969L395.241 322.152C394.732 321.961 394.319 321.577 394.092 321.083C393.866 320.589 393.844 320.026 394.032 319.516L396.518 312.777C396.612 312.523 396.754 312.29 396.938 312.092C397.122 311.893 397.343 311.733 397.589 311.621C397.835 311.508 398.101 311.445 398.371 311.435C398.641 311.425 398.911 311.469 399.164 311.563L441.527 327.381C442.037 327.572 442.45 327.956 442.676 328.45C442.903 328.944 442.924 329.507 442.736 330.017L440.25 336.756C440.157 337.01 440.014 337.242 439.83 337.441C439.646 337.639 439.425 337.799 439.179 337.912C438.933 338.025 438.668 338.088 438.397 338.098C438.127 338.107 437.858 338.064 437.604 337.969Z" fill="white"/>
<path d="M424.236 334.99C424.236 334.99 451.325 336.985 456.19 322.862C459.275 313.907 454.722 307.872 452.614 302.756C450.776 298.293 439.886 295.454 440.635 301.761C441.541 309.383 443.034 312.462 440.984 319.957C439.909 323.886 425.066 329.198 425.066 329.198L424.236 334.99Z" fill="#FFD7CF"/>
<path d="M424.236 334.99C424.236 334.99 418.219 335.934 413.723 334.673C412.602 334.123 411.565 333.417 410.641 332.578C409.742 331.759 409.536 330.312 410.835 330.467C412.177 330.628 413.316 331.667 414.224 331.611C415.467 331.533 417.8 330.114 417.8 330.114C417.8 330.114 415.067 330.597 414.25 329.837C413.931 329.54 414.435 328.55 416.56 328.207C417.803 327.993 419.062 327.892 420.323 327.905C422.041 328.022 425.066 329.198 425.066 329.198L424.236 334.99Z" fill="#FFD7CF"/>
<path d="M443.444 286.619C439.047 284.349 436.833 286.701 436.183 288.457C434.722 292.414 435.501 295.313 439.116 305.07C440.941 309.994 438.864 318.071 440.202 320.591C442.315 324.574 453.397 326.166 455.625 325.603C457.423 325.148 458.71 323.161 459.125 320.745C461.891 304.619 447.183 288.548 443.444 286.619Z" fill="#639BFF"/>
<path d="M452.351 322.018L452.363 321.528C452.296 321.526 445.53 321.318 441.339 318.005L441.034 318.39C445.356 321.806 452.067 322.011 452.351 322.018ZM346.275 470.793C347.129 470.793 347.978 470.677 348.8 470.448L372.677 463.812C372.843 463.766 372.987 463.663 373.084 463.52C373.18 463.378 373.223 463.206 373.205 463.035C373.187 462.864 373.108 462.705 372.984 462.586C372.86 462.467 372.697 462.397 372.525 462.386L270.591 456.422L270.552 456.433L245.446 463.41C245.27 463.459 245.118 463.568 245.015 463.719C244.913 463.869 244.868 464.051 244.887 464.232C244.906 464.414 244.989 464.582 245.121 464.707C245.253 464.833 245.425 464.908 245.607 464.919L345.722 470.777C345.906 470.788 346.091 470.793 346.275 470.793ZM270.644 456.917L372.496 462.876C372.552 462.879 372.605 462.902 372.646 462.941C372.687 462.979 372.712 463.031 372.718 463.087C372.724 463.142 372.71 463.198 372.679 463.245C372.647 463.291 372.6 463.325 372.546 463.34L348.669 469.976C347.72 470.239 346.734 470.344 345.751 470.287L245.636 464.429C245.57 464.425 245.508 464.398 245.46 464.352C245.412 464.307 245.382 464.246 245.375 464.181C245.368 464.115 245.385 464.049 245.422 463.995C245.459 463.94 245.514 463.901 245.577 463.883L270.644 456.917Z" fill="black"/>
<path d="M295.66 463.748L261.293 461.761L261.265 462.251L295.632 464.238L295.66 463.748Z" fill="black"/>
<path d="M306.645 461.233L272.277 459.25L272.249 459.74L306.616 461.723L306.645 461.233Z" fill="black"/>
<path d="M343.053 469.004C344.791 468.929 346.514 468.655 348.189 468.188L359.763 464.972C361.842 464.394 361.803 464.034 361.785 463.86C361.747 463.497 361.21 463.464 360.98 463.45L319.645 460.84C317.801 460.87 315.968 461.141 314.194 461.647L302.621 464.863C300.542 465.441 300.58 465.802 300.598 465.975C300.637 466.338 301.174 466.372 301.403 466.386L342.739 468.995C342.835 469.001 342.94 469.004 343.053 469.004ZM361.132 463.957C360.654 464.192 360.15 464.374 359.632 464.499L348.058 467.715C346.337 468.207 344.559 468.473 342.769 468.506L301.433 465.896C301.36 465.891 301.3 465.886 301.251 465.879C301.73 465.643 302.233 465.461 302.752 465.336L314.325 462.12C316.046 461.627 317.824 461.361 319.614 461.33L360.95 463.939C361.023 463.944 361.083 463.95 361.132 463.957Z" fill="black"/>
<path d="M348.97 478.594C355.28 478.595 372.113 471.493 372.84 471.184C373.03 471.129 373.193 471.008 373.302 470.843C373.41 470.678 373.456 470.48 373.431 470.284C373.412 470.082 373.322 469.894 373.176 469.754C373.03 469.613 372.838 469.531 372.636 469.521L354.988 468.33L354.954 468.82L372.604 470.01C372.69 470.015 372.771 470.051 372.833 470.11C372.895 470.17 372.934 470.249 372.943 470.334C372.952 470.42 372.93 470.506 372.882 470.577C372.834 470.648 372.762 470.699 372.679 470.722C372.468 470.809 354.49 478.403 348.617 478.094C307.716 476.004 261.356 472.332 248.122 471.256C248.044 471.251 247.971 471.218 247.915 471.164C247.859 471.11 247.825 471.038 247.817 470.961C247.809 470.884 247.83 470.806 247.874 470.743C247.918 470.679 247.983 470.633 248.058 470.613L258.072 467.83L257.941 467.356L247.927 470.139C247.74 470.187 247.576 470.301 247.466 470.46C247.356 470.619 247.308 470.813 247.33 471.005C247.346 471.198 247.431 471.379 247.569 471.514C247.707 471.65 247.889 471.732 248.082 471.745C261.318 472.82 307.684 476.494 348.592 478.585C348.713 478.591 348.84 478.594 348.97 478.594Z" fill="black"/>
<path d="M344.913 475.574C345.268 475.574 345.594 475.571 345.892 475.565C349.487 475.492 359.445 471.977 359.868 471.827C360.879 471.547 361.378 471.187 361.333 470.762C361.295 470.404 360.883 470.173 360.2 470.132L360.17 470.622C360.664 470.652 360.832 470.789 360.847 470.821C360.832 470.873 360.597 471.116 359.72 471.36C359.601 471.401 349.398 475.004 345.882 475.074C336.847 475.253 300.625 472.557 300.26 472.53C300.186 472.525 300.125 472.519 300.075 472.513C300.553 472.278 301.057 472.096 301.575 471.971L308.398 470L308.262 469.528L301.442 471.499C299.365 472.075 299.404 472.436 299.422 472.609C299.46 472.973 299.998 473.006 300.227 473.02C300.577 473.046 334.484 475.574 344.913 475.574Z" fill="black"/>
<path d="M205.335 483.459C205.335 483.459 204.061 489.445 204.324 491.142C204.825 494.377 206.82 495.188 208.916 498.184C209.572 499.123 208.565 500.193 207.132 499.641C202.036 497.683 198.056 495.316 197.635 493.44C197.07 490.919 197.541 483.459 197.541 483.459H205.335ZM222.545 481.958C222.545 481.958 223.029 489.005 223.733 490.749C224.442 492.508 229.153 494.137 231.514 495.409C234.818 497.187 236.133 496.216 235.631 495.206C234.93 493.798 231.933 491.004 231.159 489.073C230.178 486.647 229.636 484.066 229.557 481.45L222.545 481.958Z" fill="#FFD011"/>
<path d="M256.815 277.175C258.434 273.515 255.767 255.346 246.766 256.114C242.37 256.489 238.954 258.013 237.104 256.742C233.259 254.1 235.843 247.177 223.898 244.389C219.996 243.479 215.714 245.75 211.892 252.39C204.449 265.322 200.488 257.757 187.058 259.847C180.931 260.8 173.421 264.535 171.386 273.06C169.079 282.723 177.668 290.59 183.554 292.969C192.074 296.411 193.864 301.233 190.364 312.757C184.656 331.552 227.915 321.772 237.389 315.47C243.084 311.683 239.609 305.393 245.39 302.531C254.634 297.954 256.018 303.778 262.529 300.859C272.491 296.393 262.547 283.091 256.815 277.175Z" fill="url(#paint2_linear_144_1861)"/>
<path d="M232.314 298.485C226.624 293.599 210.85 296.309 209.96 296.539C203.975 298.08 200.119 301.681 199.111 308.479C197.769 317.537 195.981 345.601 202.952 349.887C212.264 355.613 236.81 345.03 240.647 335.912C243.57 328.965 238.773 304.031 232.314 298.485Z" fill="url(#paint3_linear_144_1861)"/>
<path d="M225.313 296.867C223.724 296.251 218.564 296.43 218.319 296.488C215.546 297.152 215.546 299.679 217.576 300.934C220.611 302.809 224.222 301.977 225.842 301.067C227.498 300.136 227.528 297.727 225.313 296.867Z" fill="#111107"/>
<path d="M230.22 279.57C229.98 278.73 229.027 278.674 228.144 279.29C227.418 279.798 227.655 282.425 228.866 282.354C230.137 282.28 230.635 281.02 230.22 279.57Z" fill="#F4C0B8"/>
<path d="M225.601 298.022C225.26 292.616 226.174 287.764 225.212 286.264C223.852 284.141 217.337 284.048 217.591 286.976C217.778 289.114 217.083 297.033 217.925 299.662C218.614 301.813 225.783 300.911 225.601 298.022Z" fill="#FFD7CF"/>
<path d="M217.602 287.066L217.615 289.081C218.63 291.604 220.267 293.948 222.117 293.598C224.14 293.214 224.981 292.442 225.634 290.749L225.754 287.43L217.602 287.066Z" fill="#F4C0B8"/>
<path d="M217.484 285.08L217.568 288.743C218.568 290.109 219.908 291.77 222.571 291.34C223.288 291.239 223.966 290.949 224.534 290.5C225.102 290.051 225.541 289.458 225.805 288.783L225.636 285.444L217.484 285.08Z" fill="#111107"/>
<path d="M226.969 272.134C225.449 270.279 220.223 267.976 217.162 271.657C214.644 274.685 214.67 279.194 215.223 282.576C215.817 286.203 217.881 290.875 222.196 290.622C226.733 290.357 227.894 286.539 228.261 283.115C228.682 279.188 229.434 275.142 226.969 272.134Z" fill="#FFD7CF"/>
<path d="M222.732 280.4C223.385 282.937 224.12 282.418 224.16 283.095C224.189 283.592 222.936 284.131 222.502 283.888C221.324 283.226 222.544 279.671 222.732 280.4Z" fill="#FF9EAB"/>
<path d="M215.805 279.928C215.369 278.444 214.09 277.749 213.044 278.588C212.177 279.282 212.881 282.636 214.484 282.798C215.522 282.904 216.297 281.601 215.805 279.928V279.928Z" fill="#F4C0B8"/>
<path d="M230.609 270.307C228.486 265.524 222.37 268.845 225.605 273.088C226.499 274.261 227.034 273.822 227.202 276.341C227.391 279.156 228.488 280.412 229.24 280.785C231.697 282.003 234.188 279.274 231.955 276.849C230.5 275.269 231.49 272.291 230.61 270.307H230.609Z" fill="url(#paint4_linear_144_1861)"/>
<path d="M211.547 276.646C210.644 274.046 210.024 271.424 212.585 270.342C216.34 268.756 213.424 266.187 217.187 265.896C221.255 265.582 222.394 269.038 225.793 267.855C227.053 267.416 227.874 268.005 226.641 269.568C225.201 271.394 225.729 277.113 221.032 278.458C219.425 278.918 216.724 278.663 215.91 278.748C213.438 279.006 214.527 281.194 212.8 281.441C210.825 281.725 209.806 279.477 211.547 276.646Z" fill="url(#paint5_linear_144_1861)"/>
<path d="M283.628 318.597C287.312 317.21 290.608 314.955 293.235 312.022C293.484 311.749 293.675 309.54 294.369 308.627C296.596 305.7 295.432 304.695 295.277 304.757C292.665 305.797 290.688 306.74 288.256 307.608C288.881 306.83 289.907 306.17 289.874 305.017C289.86 304.567 288.589 305.048 287.984 305.654C287.498 306.14 284.468 307.785 283.685 308.713C282.296 310.359 282.145 311.558 280.875 313.369C282.281 314.713 282.288 317.19 283.628 318.597Z" fill="#FFD7CF"/>
<path d="M233.806 298.7C238.024 304.868 238.451 309.576 250.926 317.543C259.672 323.129 276.104 318.432 280.575 310.138C283.656 311.214 286.632 315.161 289.277 316.805C283.943 328.56 267.991 338.441 257.866 339.543C241.437 341.332 225.714 332.295 221.348 318.895C220.326 315.757 235.059 300.532 233.806 298.7Z" fill="url(#paint6_linear_144_1861)"/>
<path d="M228.725 330.253C233.894 326.312 240.75 320.649 241.794 310.403C240.354 309.002 238.972 306.5 237.464 304.754C236.446 310.703 231.97 321.2 224.485 325.133C225.63 327.045 227.06 328.771 228.725 330.253ZM237.888 336.35C244.718 334.729 250.186 324.829 250.922 317.544C249.154 316.458 247.452 315.266 245.827 313.975C244.191 320.097 238.172 330.203 232.742 333.461L237.888 336.35ZM258.874 339.398C259.654 334.052 259.787 325.031 258.398 319.887C257.343 319.573 255.086 319.856 254.303 319.099C253.378 324.5 250.376 334.102 249.233 339.503C251.21 340.271 256.784 339.538 258.874 339.398ZM273.891 331.945C273.891 331.945 271.39 323.117 269.75 318.302C268.35 318.773 266.923 319.164 265.478 319.472C266.206 324.513 268.028 329.33 268.413 335.538L273.891 331.945ZM285.194 320.868C285.194 320.868 279.557 316.127 278.119 313.297C277.055 314.282 275.903 315.169 274.679 315.946C277.021 318.796 279.103 321.496 281.732 324.932C281.732 324.932 285.358 321.348 285.194 320.868Z" fill="#FFD011"/>
<path d="M196.93 335.224C196.93 335.224 202.802 333.047 205.943 325.455C210.407 314.668 207.102 297.01 207.102 297.01L212.775 295.582C212.775 295.582 218.173 318.753 228.029 318.302C236.385 317.919 230.069 296.229 230.069 296.229C231.57 296.782 232.864 297.783 233.777 299.097C237.348 304.643 237.404 314.021 238.852 324.839C239.648 330.784 242.425 333.031 242.425 333.031C242.425 333.031 246.904 362.721 238.665 406.952C231.627 444.739 231.992 489.129 231.992 489.129L222.307 488.982C222.307 488.982 214.78 472.253 215.712 437.475C215.97 427.855 217.261 418.224 217.261 418.224C217.261 418.224 219.118 427.056 214.176 444.344C210.385 457.603 205.46 491.482 205.46 491.482H196.116C192.263 449.809 196.299 447.518 196.628 417C197.354 349.635 196.931 335.224 196.931 335.224H196.93ZM222.699 286.132C222.474 286.339 221.619 286.04 221.658 285.379C221.658 285.379 223.106 285.759 222.699 286.132ZM223.743 278.449C223.551 278.269 224.519 277.787 225.183 277.966C225.485 278.082 225.73 278.31 225.867 278.603C225.531 278.451 225.161 278.391 224.795 278.429C224.363 278.464 223.86 278.559 223.743 278.449ZM224.969 279.597C224.965 279.542 224.95 279.489 224.926 279.441C224.902 279.392 224.868 279.348 224.827 279.312C224.786 279.277 224.738 279.249 224.687 279.232C224.635 279.215 224.581 279.208 224.526 279.211C224.472 279.215 224.419 279.229 224.37 279.254C224.321 279.278 224.278 279.312 224.242 279.353C224.206 279.394 224.179 279.442 224.161 279.493C224.144 279.545 224.137 279.599 224.141 279.654C224.156 279.883 224.315 279.953 224.544 279.937C224.773 279.921 224.984 279.826 224.969 279.597ZM220.368 279.837C220.361 279.727 220.311 279.625 220.228 279.552C220.146 279.479 220.038 279.442 219.928 279.449C219.818 279.456 219.715 279.506 219.643 279.589C219.57 279.672 219.533 279.78 219.54 279.889C219.555 280.118 219.767 280.191 219.995 280.176C220.224 280.161 220.382 280.066 220.368 279.837Z" fill="#111107"/>
<path d="M227.343 336.923C232.623 336.236 234.711 332.89 235.534 330.204C236.578 326.793 235.923 323.075 234.97 322.234C234.876 322.135 234.754 322.068 234.62 322.041C234.486 322.014 234.347 322.028 234.221 322.082C227.518 325.078 223.929 324.655 221.786 324.403C220.771 324.283 220.038 324.196 219.414 324.512C219.305 324.589 219.216 324.69 219.152 324.807C219.088 324.924 219.051 325.053 219.044 325.186C218.734 326.833 219.426 331.268 221.489 333.574L221.854 333.246C219.97 331.14 219.377 327.284 219.479 325.688C219.465 325.43 219.522 325.173 219.643 324.945C220.128 324.702 220.765 324.777 221.728 324.89C223.922 325.148 227.595 325.58 234.422 322.53C234.45 322.517 234.516 322.488 234.646 322.602C235.376 323.247 236.107 326.655 235.065 330.06C234.284 332.608 232.3 335.783 227.28 336.436L227.343 336.923Z" fill="white"/>
<path d="M223.804 327.168C227.152 327.168 232.094 326.221 237.145 323.286L236.898 322.861C230.042 326.846 223.433 327.109 220.878 326.338L220.736 326.808C221.737 327.071 222.769 327.192 223.804 327.168ZM199.778 376.588C207.822 373.388 206.885 360.716 206.875 360.589L206.385 360.629C206.395 360.753 207.303 373.066 199.596 376.132L199.778 376.588ZM215.953 437.54C224.938 404.787 226.694 395.56 226.71 395.471L226.227 395.381C226.211 395.47 224.456 404.688 215.479 437.41L215.953 437.54Z" fill="white"/>
<path d="M218.767 279.023C220.011 279.022 221.227 278.66 222.267 277.98C224.173 276.735 225.471 274.485 226.125 271.291L225.644 271.192C225.017 274.253 223.791 276.399 221.999 277.569C220.8 278.355 219.354 278.673 217.935 278.462L217.832 278.942C218.141 278.999 218.454 279.026 218.767 279.023Z" fill="black"/>
<path d="M218.228 276.465C219.107 276.465 219.967 276.21 220.703 275.73C222.016 274.872 222.91 273.339 223.359 271.173L222.878 271.073C222.387 273.445 221.362 274.983 219.833 275.642C219.153 275.937 218.404 276.037 217.67 275.929L217.568 276.409C217.786 276.449 218.007 276.468 218.228 276.465Z" fill="black"/>
<path d="M325.8 234.804L251.219 230.213C249.848 230.129 248.473 230.315 247.174 230.762C245.875 231.209 244.676 231.907 243.647 232.817C242.618 233.727 241.777 234.831 241.175 236.065C240.572 237.3 240.218 238.641 240.134 240.012L231.934 373.24C231.85 374.612 232.036 375.986 232.483 377.285C232.93 378.585 233.628 379.783 234.538 380.812C235.448 381.842 236.552 382.682 237.786 383.284C239.021 383.887 240.362 384.241 241.734 384.325L316.315 388.915C319.084 389.086 321.808 388.149 323.887 386.311C325.966 384.474 327.229 381.886 327.4 379.116L335.6 245.888C335.77 243.119 334.833 240.395 332.996 238.316C331.158 236.238 328.57 234.974 325.8 234.804Z" fill="#639BFF"/>
<path d="M325.8 234.804L251.219 230.213C248.45 230.043 245.726 230.98 243.648 232.817C241.569 234.655 240.305 237.243 240.135 240.012L239.354 252.692L334.819 258.568L335.6 245.888C335.77 243.119 334.833 240.395 332.996 238.316C331.158 236.238 328.57 234.974 325.8 234.804Z" fill="black"/>
<path d="M308.819 292.93C303.086 290.775 300.186 284.38 302.341 278.647C304.497 272.915 310.891 270.015 316.624 272.17C322.357 274.325 325.257 280.72 323.101 286.452C320.946 292.185 314.552 295.085 308.819 292.93Z" fill="white"/>
<path d="M292.301 277.081L247.533 274.323L247.503 274.812L292.271 277.571L292.301 277.081Z" fill="black"/>
<path d="M294.23 255.826L243.607 252.707L243.577 253.197L294.2 256.316L294.23 255.826Z" fill="white"/>
<path d="M317.652 257.267L298.752 256.102L298.722 256.592L317.622 257.757L317.652 257.267Z" fill="white"/>
<path d="M291.816 284.985L290.837 284.925L290.806 285.415L291.786 285.475L291.816 284.985Z" fill="black"/>
<path d="M288.849 285.295L288.879 284.805L286.921 284.684L286.891 285.174L288.849 285.295ZM284.933 285.054L284.964 284.564L283.005 284.443L282.975 284.934L284.933 285.054ZM281.017 284.813L281.048 284.323L279.09 284.202L279.06 284.692L281.017 284.813ZM277.102 284.572L277.132 284.082L275.174 283.961L275.144 284.451L277.102 284.572ZM273.186 284.33L273.216 283.841L271.258 283.72L271.228 284.21L273.186 284.33ZM269.27 284.09L269.301 283.6L267.342 283.479L267.313 283.969L269.27 284.09ZM265.355 283.848L265.385 283.359L263.426 283.238L263.397 283.728L265.355 283.848Z" fill="black"/>
<path d="M261.469 283.117L260.489 283.057L260.459 283.547L261.439 283.607L261.469 283.117Z" fill="black"/>
<path d="M302.074 327.92C298.017 323.331 298.449 316.323 303.037 312.266C307.626 308.21 314.634 308.641 318.69 313.23C322.747 317.818 322.315 324.827 317.727 328.883C313.138 332.939 306.13 332.508 302.074 327.92Z" fill="white"/>
<path d="M289.961 315.106L245.193 312.348L245.163 312.838L289.931 315.596L289.961 315.106Z" fill="black"/>
<path d="M289.477 323.011L265.215 321.516L265.185 322.006L289.446 323.501L289.477 323.011Z" fill="black"/>
<path d="M307.795 369.686C301.672 369.549 296.82 364.474 296.957 358.351C297.094 352.228 302.169 347.376 308.292 347.513C314.415 347.65 319.268 352.725 319.13 358.848C318.993 364.971 313.918 369.824 307.795 369.686Z" fill="white"/>
<path d="M251.5 350.906L242.853 350.373L242.823 350.863L251.47 351.396L251.5 350.906Z" fill="black"/>
<path d="M287.621 353.133L253.774 351.044L253.744 351.534L287.591 353.623L287.621 353.133Z" fill="black"/>
<path d="M287.137 361.036L269.991 359.98L269.96 360.47L287.107 361.526L287.137 361.036Z" fill="black"/>
<path d="M255.239 341.666C259.158 340.998 262.849 339.364 265.979 336.913C266.277 336.684 266.892 334.459 267.753 333.667C270.513 331.128 269.56 329.855 269.396 329.887C266.621 330.413 264.49 330.971 261.925 331.358C262.691 330.689 263.83 330.224 264.02 329.037C264.094 328.572 262.748 328.802 262.035 329.298C261.462 329.696 258.157 330.755 257.206 331.545C255.519 332.945 255.139 334.143 253.537 335.736C254.663 337.405 254.191 339.947 255.239 341.666Z" fill="#FFD7CF"/>
<path d="M209.201 304.754C213.358 317.701 212.344 319.251 221.955 331.389C228.694 339.898 246.086 341.15 253.004 334.686C255.655 336.818 257.51 337.967 259.562 340.496C250.729 350.013 231.987 357.69 221.829 355.181C205.346 351.108 194.209 338.126 194.927 323.546C196.151 298.7 205.687 293.808 209.202 304.754H209.201Z" fill="url(#paint7_linear_144_1861)"/>
<path d="M197.705 336.883C203.943 334.888 211.345 331.959 215.549 322.39C214.589 320.522 212.704 315.523 211.786 313.297C208.945 318.707 203.451 325.692 194.97 326.861C195.195 327.445 195.648 333.189 197.705 336.883ZM203.464 345.022C210.589 345.864 218.974 338.195 221.958 331.389C220.581 329.71 219.303 327.952 218.13 326.125C214.637 331.486 205.965 339.094 199.686 340.335L203.464 345.022ZM222.857 355.397C225.279 350.486 228.218 341.784 228.474 336.304C227.55 335.627 225.274 335.103 224.75 334.092C222.172 339.004 216.27 347.257 213.48 352.092C215.156 353.534 220.788 354.794 222.857 355.397ZM240.247 352.714C240.247 352.714 240.062 344.028 239.973 338.779C238.465 338.741 236.961 338.615 235.467 338.403C234.603 343.551 234.545 348.716 232.984 354.873L240.247 352.714ZM253.945 345.403C253.945 345.403 250.157 340.136 249.646 336.883C248.304 337.463 246.911 337.916 245.485 338.236C246.868 341.828 247.423 344.387 248.901 348.649C250.638 347.655 252.321 346.572 253.945 345.403Z" fill="#FFD011"/>
<path d="M165.611 425.06H150.397V425.551H165.611V425.06ZM179.373 212.959H127.522V213.45H179.373V212.959ZM191.5 213.45H191.926V212.959H191.5V213.45ZM193.89 213.45H195.853V212.959H193.89V213.45ZM197.816 213.45H199.78V212.959H197.816V213.45ZM201.743 213.45H203.706V212.959H201.743V213.45ZM205.67 213.45H207.633V212.959H205.67V213.45ZM209.596 213.45H211.56V212.959H209.596V213.45ZM213.523 213.45H215.486V212.959H213.523V213.45ZM217.45 213.45H219.413V212.959H217.45V213.45ZM221.376 213.45H223.34V212.959H221.376V213.45ZM225.303 213.45H227.266V212.959H225.303V213.45ZM229.23 213.45H231.193V212.959H229.23V213.45ZM233.156 213.45H235.12V212.959H233.156V213.45ZM237.083 213.45H239.046V212.959H237.083V213.45ZM241.01 213.45H242.973V212.959H241.01V213.45ZM244.936 213.45H246.9V212.959H244.936V213.45ZM248.863 213.45H250.826V212.959H248.863V213.45ZM252.79 213.45H254.753V212.959H252.79V213.45ZM256.716 213.45H258.68V212.959H256.716V213.45ZM260.643 213.45H262.606V212.959H260.643V213.45ZM264.57 213.45H266.533V212.959H264.57V213.45ZM268.496 213.45H270.46V212.959H268.496V213.45ZM272.423 213.45H274.386V212.959H272.423V213.45ZM276.35 213.45H278.313V212.959H276.35V213.45ZM280.276 213.45H282.24V212.959H280.276V213.45ZM284.203 213.45H286.166V212.959H284.203V213.45ZM288.13 213.45H290.093V212.959H288.13V213.45ZM292.056 213.45H294.02V212.959H292.056V213.45ZM295.983 213.45H297.946V212.959H295.983V213.45ZM299.91 213.45H301.873V212.959H299.91V213.45ZM303.836 213.45H305.8V212.959H303.836V213.45ZM307.763 213.45H309.726V212.959H307.763V213.45ZM311.69 213.45H313.653V212.959H311.69V213.45ZM315.616 213.45H317.58V212.959H315.616V213.45ZM319.543 213.45H321.506V212.959H319.543V213.45ZM323.47 213.45H325.433V212.959H323.47V213.45ZM327.396 213.45H329.36V212.959H327.396V213.45ZM331.323 213.45H333.286V212.959H331.323V213.45ZM335.25 213.45H337.213V212.959H335.25V213.45ZM339.176 213.45H341.14V212.959H339.176V213.45ZM343.103 213.45H345.066V212.959H343.103V213.45ZM347.03 213.45H348.993V212.959H347.03V213.45ZM350.956 213.45H352.92V212.959H350.956V213.45ZM354.883 213.45H356.846V212.959H354.883V213.45ZM358.81 213.45H360.773V212.959H358.81V213.45ZM362.736 213.45H364.7V212.959H362.736V213.45ZM366.663 213.45H368.626V212.959H366.663V213.45ZM370.59 213.45H372.553V212.959H370.59V213.45ZM374.516 213.45H376.48V212.959H374.516V213.45ZM378.443 213.45H380.406V212.959H378.443V213.45ZM382.37 213.45H384.333V212.959H382.37V213.45ZM386.296 213.45H388.26V212.959H386.296V213.45ZM390.223 213.45H392.186V212.959H390.223V213.45ZM394.15 213.45H396.113V212.959H394.15V213.45ZM398.076 213.45H400.04V212.959H398.076V213.45ZM402.003 213.45H403.966V212.959H402.003V213.45ZM405.93 213.45H407.893V212.959H405.93V213.45ZM409.856 213.45H411.82V212.959H409.856V213.45ZM413.783 213.45H415.746V212.959H413.783V213.45ZM417.71 213.45H419.673V212.959H417.71V213.45ZM421.636 213.45H423.6V212.959H421.636V213.45ZM425.563 213.45H427.526V212.959H425.563V213.45ZM429.49 213.45H431.453V212.959H429.49V213.45ZM433.416 213.45H435.38V212.959H433.416V213.45ZM437.343 213.45H439.306V212.959H437.343V213.45ZM441.27 213.45H443.233V212.959H441.27V213.45ZM445.196 213.45H447.16V212.959H445.196V213.45ZM449.123 213.45H451.086V212.959H449.123V213.45ZM453.05 213.45H455.013V212.959H453.05V213.45ZM456.976 213.45H458.94V212.959H456.976V213.45ZM460.903 213.45H462.866V212.959H460.903V213.45ZM464.83 213.45H466.793V212.959H464.83V213.45ZM179.373 226.652H127.522V227.143H179.373V226.652ZM179.373 240.345H127.522V240.835H179.373V240.345ZM148.532 425.06H138.755V425.551H148.532V425.06Z" fill="black"/>
<path d="M364.445 139.781C365.094 141.255 365.365 142.868 365.233 144.473C365.102 146.078 364.572 147.625 363.692 148.973C362.812 150.322 361.61 151.43 360.194 152.197C358.778 152.964 357.193 153.366 355.582 153.366C353.972 153.366 352.387 152.964 350.971 152.197C349.555 151.43 348.353 150.322 347.473 148.973C346.593 147.625 346.063 146.078 345.932 144.473C345.8 142.868 346.071 141.255 346.72 139.781H364.445Z" fill="url(#paint8_linear_144_1861)"/>
<path d="M324.185 140.192H386.984L386.956 139.92C386.128 132.178 382.466 125.015 376.675 119.81C370.883 114.605 363.372 111.726 355.585 111.726C347.798 111.726 340.287 114.605 334.496 119.81C328.704 125.015 325.042 132.178 324.214 139.92L324.185 140.192ZM386.438 139.701H324.732C325.609 132.133 329.237 125.152 334.926 120.085C340.614 115.018 347.967 112.218 355.585 112.218C363.203 112.218 370.555 115.018 376.244 120.085C381.932 125.152 385.56 132.133 386.438 139.701Z" fill="#111107"/>
<path d="M381.085 136.278L381.574 136.236C381.36 133.92 380.709 131.667 379.657 129.593L379.217 129.812C380.242 131.83 380.876 134.024 381.085 136.278ZM377.849 127.469L378.257 127.195C374.128 121.052 367.006 116.76 359.207 115.715L359.142 116.201C366.804 117.229 373.798 121.441 377.849 127.469Z" fill="#111107"/>
<path d="M355.828 64.6455H355.337V99.9099H355.828V64.6455ZM355.828 102.326H355.337V109.274H355.828V102.326Z" fill="black"/>
</g>
<defs>
<linearGradient id="paint0_linear_144_1861" x1="152.47" y1="401.341" x2="152.47" y2="425.306" gradientUnits="userSpaceOnUse">
<stop stop-color="#FFDC1D"/>
<stop offset="1" stop-color="#F0A41D"/>
</linearGradient>
<linearGradient id="paint1_linear_144_1861" x1="416.464" y1="314.239" x2="416.464" y2="393.817" gradientUnits="userSpaceOnUse">
<stop stop-color="#47AA50"/>
<stop offset="1" stop-color="#257219"/>
</linearGradient>
<linearGradient id="paint2_linear_144_1861" x1="206.122" y1="331.821" x2="237.17" y2="218.118" gradientUnits="userSpaceOnUse">
<stop stop-color="#FB4143"/>
<stop offset="1" stop-color="#CD0000"/>
</linearGradient>
<linearGradient id="paint3_linear_144_1861" x1="197.865" y1="323.546" x2="241.523" y2="323.546" gradientUnits="userSpaceOnUse">
<stop stop-color="#FFDC1D"/>
<stop offset="1" stop-color="#F0A41D"/>
</linearGradient>
<linearGradient id="paint4_linear_144_1861" x1="232.23" y1="274.095" x2="225.235" y2="275.018" gradientUnits="userSpaceOnUse">
<stop stop-color="#FB4143"/>
<stop offset="1" stop-color="#CD0000"/>
</linearGradient>
<linearGradient id="paint5_linear_144_1861" x1="227.972" y1="272.474" x2="209.96" y2="275.54" gradientUnits="userSpaceOnUse">
<stop stop-color="#FB4143"/>
<stop offset="1" stop-color="#CD0000"/>
</linearGradient>
<linearGradient id="paint6_linear_144_1861" x1="252.924" y1="339.902" x2="256.993" y2="301.138" gradientUnits="userSpaceOnUse">
<stop stop-color="#FFDC1D"/>
<stop offset="1" stop-color="#F0A41D"/>
</linearGradient>
<linearGradient id="paint7_linear_144_1861" x1="215.548" y1="353.161" x2="234.725" y2="313.705" gradientUnits="userSpaceOnUse">
<stop stop-color="#FFDC1D"/>
<stop offset="1" stop-color="#F0A41D"/>
</linearGradient>
<linearGradient id="paint8_linear_144_1861" x1="355.582" y1="153.357" x2="355.582" y2="133.991" gradientUnits="userSpaceOnUse">
<stop stop-color="#FFDC1D"/>
<stop offset="1" stop-color="#F0A41D"/>
</linearGradient>
<clipPath id="clip0_144_1861">
<rect width="589" height="589" fill="white" transform="matrix(-1 0 0 1 589 0)"/>
</clipPath>
</defs>
</svg>
