<svg width="18" height="20" viewBox="0 0 18 20" fill="none" xmlns="http://www.w3.org/2000/svg">
<g clip-path="url(#clip0_133_1267)">
<path d="M9.01494 3.18262C6.53244 3.18262 4.51494 5.20012 4.51494 7.68262V9.85012C4.51494 10.3076 4.31994 11.0051 4.08744 11.3951L3.22494 12.8276C2.69244 13.7126 3.05994 14.6951 4.03494 15.0251C7.26744 16.1051 10.7549 16.1051 13.9874 15.0251C14.8949 14.7251 15.2924 13.6526 14.7974 12.8276L13.9349 11.3951C13.7099 11.0051 13.5149 10.3076 13.5149 9.85012V7.68262C13.5149 5.20762 11.4899 3.18262 9.01494 3.18262Z" stroke="white" stroke-width="1.3" stroke-miterlimit="10" stroke-linecap="round"/>
<path d="M10.4039 3.40008C10.1714 3.33258 9.93141 3.28008 9.68391 3.25008C8.96391 3.16008 8.27391 3.21258 7.62891 3.40008C7.84641 2.84508 8.38641 2.45508 9.01641 2.45508C9.64641 2.45508 10.1864 2.84508 10.4039 3.40008Z" stroke="white" stroke-width="1.3" stroke-miterlimit="10" stroke-linecap="round" stroke-linejoin="round"/>
<path d="M11.2656 15.2949C11.2656 16.5324 10.2531 17.5449 9.01562 17.5449C8.40062 17.5449 7.83062 17.2899 7.42562 16.8849C7.02062 16.4799 6.76562 15.9099 6.76562 15.2949" stroke="white" stroke-width="1.3" stroke-miterlimit="10"/>
</g>
<defs>
<clipPath id="clip0_133_1267">
<rect width="18" height="19" fill="white" transform="translate(0 0.5)"/>
</clipPath>
</defs>
</svg>
