<svg width="23" height="23" viewBox="0 0 23 23" fill="none" xmlns="http://www.w3.org/2000/svg">
<path d="M6.40129 17.0409C7.70388 17.947 7.88997 19.0621 8.00162 19.3758V22.0242C8.00162 22.5818 8.48544 23 9.04369 23H13.9935C14.589 23 15.0356 22.547 15.0356 22.0242C15.0356 21.9894 15.0356 19.4106 15.0356 19.3409C15.2217 18.4348 15.7799 17.6333 16.5615 17.1106C18.7945 15.6121 20.1343 13.1727 20.1343 10.5939C20.1343 6.02879 16.0777 2.3697 11.2023 2.54394C6.66181 2.68333 2.94013 6.30758 2.94013 10.5591C2.94013 13.1379 4.2055 15.5076 6.40129 17.0409ZM12.9142 17.8773V18.9227H10.1974C10.1974 17.9121 10.1602 17.8773 10.2346 17.8773C12.9887 17.8773 12.9142 17.8424 12.9142 17.8773ZM14.3285 19.6197V20.5955H8.78317V19.6197C10.4951 19.6197 12.5793 19.6197 14.3285 19.6197ZM14.0307 22.303H9.08091C8.89482 22.303 8.78317 22.1636 8.78317 22.0242V21.3273H14.3285V22.0242C14.3285 22.1636 14.1796 22.303 14.0307 22.303ZM11.2395 3.20606C15.7427 3.06667 19.4272 6.41212 19.4272 10.5591C19.4272 12.8939 18.199 15.1242 16.1521 16.5182C15.2961 17.1106 14.7006 17.947 14.4029 18.9227H13.6214V17.8773C13.6214 17.4939 13.2864 17.1455 12.8398 17.1455H12.6909V11.7091C12.9515 11.8485 13.212 11.953 13.5097 11.953C14.3657 11.953 15.0728 11.2909 15.0728 10.4894C15.0728 9.68788 14.3657 9.02576 13.5097 9.02576C12.6537 9.02576 11.9466 9.68788 11.9466 10.4894V17.2152H11.0906V10.4545C11.0906 9.65303 10.3835 8.99091 9.52751 8.99091C8.67152 8.99091 7.9644 9.65303 7.9644 10.4545C7.9644 11.2561 8.67152 11.9182 9.52751 11.9182C9.82524 11.9182 10.123 11.8485 10.3463 11.6742V17.1455H10.1974C9.78803 17.1455 9.41586 17.4591 9.41586 17.8773V18.9227H8.6343C8.33657 17.947 7.70388 17.1106 6.81068 16.4833C4.80097 15.0894 3.64725 12.9288 3.64725 10.5939C3.68447 6.65606 7.0712 3.3803 11.2395 3.20606ZM12.7282 10.4545C12.7282 10.0364 13.1003 9.68788 13.5469 9.68788C13.9935 9.68788 14.3657 10.0364 14.3657 10.4545C14.3657 10.8727 13.9935 11.2212 13.5469 11.2212C13.1003 11.2212 12.7282 10.8727 12.7282 10.4545ZM10.3835 10.4545C10.3835 10.8727 10.0113 11.2212 9.56472 11.2212C9.11812 11.2212 8.74595 10.8727 8.74595 10.4545C8.74595 10.0364 9.11812 9.68788 9.56472 9.68788C10.0113 9.65303 10.3835 10.0015 10.3835 10.4545ZM11.5372 1.77727C11.7605 1.77727 11.9094 1.63788 11.9094 1.42879V0.348485C11.9094 0.139394 11.7605 0 11.5372 0C11.3139 0 11.165 0.139394 11.165 0.348485V1.42879C11.165 1.60303 11.3511 1.77727 11.5372 1.77727ZM7.85275 2.43939C8.03883 2.3697 8.15049 2.16061 8.03883 1.98636L7.59223 0.975758C7.5178 0.801515 7.2945 0.69697 7.10841 0.801515C6.95955 0.871212 6.8479 1.0803 6.92233 1.25455L7.36893 2.26515C7.44337 2.43939 7.66667 2.50909 7.85275 2.43939ZM4.72654 4.39091C4.8754 4.25152 4.8754 4.04242 4.72654 3.90303L3.90777 3.13636C3.7589 2.99697 3.5356 2.99697 3.38673 3.13636C3.23786 3.27576 3.23786 3.48485 3.38673 3.62424L4.2055 4.39091C4.35437 4.5303 4.57767 4.5303 4.72654 4.39091ZM2.41909 6.8303L1.33981 6.41212C1.15372 6.34242 0.930421 6.41212 0.855987 6.58636C0.781553 6.76061 0.855987 6.9697 1.04207 7.03939L2.15858 7.49242C2.34466 7.56212 2.56796 7.49242 2.64239 7.31818C2.71683 7.10909 2.60518 6.9 2.41909 6.8303ZM0 10.7333C0 10.9424 0.148867 11.0818 0.372168 11.0818H1.52589C1.74919 11.0818 1.89806 10.9424 1.89806 10.7333C1.89806 10.5242 1.74919 10.3848 1.52589 10.3848H0.372168C0.148867 10.3848 0 10.5242 0 10.7333ZM2.12136 14.0091L1.04207 14.4273C0.855987 14.497 0.744337 14.7061 0.855987 14.8803C0.930421 15.0545 1.15372 15.1591 1.33981 15.0545L2.38188 14.6364C2.56796 14.5667 2.67961 14.3576 2.56796 14.1833C2.53074 14.0091 2.30744 13.9394 2.12136 14.0091ZM20.5809 14.7409L21.6602 15.1591C21.8463 15.2288 22.0696 15.1591 22.144 14.9848C22.2184 14.8106 22.144 14.6015 21.9579 14.5318L20.8786 14.1136C20.6926 14.0439 20.4693 14.1136 20.3948 14.2879C20.2832 14.4621 20.3948 14.6712 20.5809 14.7409ZM23 10.8379C23 10.6288 22.8511 10.4894 22.6278 10.4894H21.4741C21.2508 10.4894 21.1019 10.6288 21.1019 10.8379C21.1019 11.047 21.2508 11.1864 21.4741 11.1864H22.6278C22.8511 11.1864 23 11.0121 23 10.8379ZM20.8786 7.56212L21.9579 7.14394C22.144 7.07424 22.2557 6.86515 22.144 6.69091C22.0696 6.51667 21.8463 6.41212 21.6602 6.51667L20.6181 6.93485C20.432 7.00455 20.3204 7.21364 20.432 7.38788C20.4693 7.56212 20.6926 7.63182 20.8786 7.56212ZM18.8689 4.46061L19.6877 3.69394C19.8366 3.55455 19.8366 3.34545 19.6877 3.20606C19.5388 3.06667 19.3155 3.06667 19.1667 3.20606L18.3479 3.97273C18.199 4.11212 18.199 4.32121 18.3479 4.46061C18.4968 4.6 18.7201 4.6 18.8689 4.46061ZM15.7055 2.3L16.1521 1.28939C16.2265 1.11515 16.1521 0.906061 15.966 0.836364C15.7799 0.766667 15.5566 0.836364 15.4822 1.01061L15.0356 2.02121C14.9612 2.19545 15.0356 2.40455 15.2217 2.47424C15.4078 2.54394 15.6311 2.47424 15.7055 2.3Z" fill="white"/>
</svg>
