<svg width="23" height="23" viewBox="0 0 23 23" fill="none" xmlns="http://www.w3.org/2000/svg">
<g clip-path="url(#clip0_14_1008)">
<path d="M16.4828 18.4007H6.51615C6.41448 18.4007 6.31698 18.441 6.24509 18.5129C6.1732 18.5848 6.13281 18.6823 6.13281 18.784C6.13281 18.8857 6.1732 18.9832 6.24509 19.055C6.31698 19.1269 6.41448 19.1673 6.51615 19.1673H16.4828C16.5845 19.1673 16.682 19.1269 16.7539 19.055C16.8258 18.9832 16.8661 18.8857 16.8661 18.784C16.8661 18.6823 16.8258 18.5848 16.7539 18.5129C16.682 18.441 16.5845 18.4007 16.4828 18.4007ZM16.4828 15.334H6.51615C6.41448 15.334 6.31698 15.3744 6.24509 15.4463C6.1732 15.5181 6.13281 15.6157 6.13281 15.7173C6.13281 15.819 6.1732 15.9165 6.24509 15.9884C6.31698 16.0603 6.41448 16.1007 6.51615 16.1007H16.4828C16.5845 16.1007 16.682 16.0603 16.7539 15.9884C16.8258 15.9165 16.8661 15.819 16.8661 15.7173C16.8661 15.6157 16.8258 15.5181 16.7539 15.4463C16.682 15.3744 16.5845 15.334 16.4828 15.334Z" fill="white"/>
<path d="M18.3997 2.3H16.0292C15.8705 1.85533 15.4488 1.53333 14.9497 1.53333H13.6686C13.3474 0.628667 12.4811 0 11.4997 0C10.5184 0 9.65131 0.628667 9.33084 1.53333H8.04974C7.55064 1.53333 7.12974 1.85533 6.97027 2.3H4.59974C3.75411 2.3 3.06641 2.9877 3.06641 3.83333V21.4667C3.06641 22.3123 3.75411 23 4.59974 23H18.3997C19.2454 23 19.9331 22.3123 19.9331 21.4667V3.83333C19.9331 2.9877 19.2454 2.3 18.3997 2.3ZM7.66641 2.68333C7.66641 2.58167 7.70679 2.48416 7.77868 2.41228C7.85057 2.34039 7.94807 2.3 8.04974 2.3H9.62141C9.70978 2.30002 9.79544 2.2695 9.8639 2.21362C9.93235 2.15774 9.9794 2.07992 9.99707 1.99333C10.142 1.28263 10.7737 0.766667 11.4997 0.766667C12.2258 0.766667 12.8575 1.28263 13.0024 1.99333C13.0201 2.07992 13.0671 2.15774 13.1356 2.21362C13.204 2.2695 13.2897 2.30002 13.3781 2.3H14.9497C15.0514 2.3 15.1489 2.34039 15.2208 2.41228C15.2927 2.48416 15.3331 2.58167 15.3331 2.68333V3.06667C15.3331 3.4891 14.9888 3.83333 14.5664 3.83333H8.43307C8.01064 3.83333 7.66641 3.4891 7.66641 3.06667V2.68333ZM19.1664 21.4667C19.1664 21.8891 18.8222 22.2333 18.3997 22.2333H4.59974C4.17731 22.2333 3.83307 21.8891 3.83307 21.4667V3.83333C3.83307 3.4109 4.17731 3.06667 4.59974 3.06667H6.89974C6.89974 3.9123 7.58744 4.6 8.43307 4.6H14.5664C15.412 4.6 16.0997 3.9123 16.0997 3.06667H18.3997C18.8222 3.06667 19.1664 3.4109 19.1664 3.83333V21.4667Z" fill="white"/>
<path d="M16.0995 7.66602C15.677 7.66602 15.3328 8.01025 15.3328 8.43268C15.3328 8.52085 15.3558 8.60288 15.3834 8.68262L12.4218 12.2974C12.3696 12.2867 12.3213 12.266 12.2661 12.266C12.2002 12.266 12.1419 12.2882 12.0806 12.3036L9.93165 10.1354C9.94468 10.0795 9.96615 10.0258 9.96615 9.96602C9.96615 9.54358 9.62191 9.19935 9.19948 9.19935C9.07288 9.19966 8.94832 9.23129 8.8369 9.29142C8.72549 9.35155 8.63068 9.4383 8.56093 9.54396C8.49118 9.64961 8.44865 9.77088 8.43713 9.89696C8.42561 10.023 8.44546 10.15 8.49491 10.2665L6.98458 12.2829C6.95545 12.2806 6.93015 12.266 6.89948 12.266C6.47705 12.266 6.13281 12.6102 6.13281 13.0327C6.13281 13.4551 6.47705 13.7993 6.89948 13.7993C7.02595 13.7991 7.15039 13.7675 7.26173 13.7075C7.37307 13.6475 7.46785 13.561 7.53765 13.4555C7.60746 13.35 7.65012 13.2289 7.66183 13.103C7.67355 12.9771 7.65396 12.8502 7.60481 12.7337L9.11668 10.7158C9.14505 10.7189 9.17035 10.7327 9.19948 10.7327C9.27155 10.7327 9.33748 10.7097 9.40341 10.6913L11.5378 12.8448C11.5217 12.9062 11.4995 12.966 11.4995 13.0327C11.4995 13.4551 11.8437 13.7993 12.2661 13.7993C12.6886 13.7993 13.0328 13.4551 13.0328 13.0327C13.0328 12.956 13.0098 12.8855 12.9891 12.8149L15.9714 9.17328C16.0151 9.18095 16.0542 9.19935 16.0995 9.19935C16.5219 9.19935 16.8661 8.85512 16.8661 8.43268C16.8661 8.01025 16.5219 7.66602 16.0995 7.66602Z" fill="white"/>
</g>
<defs>
<clipPath id="clip0_14_1008">
<rect width="23" height="23" fill="white"/>
</clipPath>
</defs>
</svg>
